<?xml version="1.0" encoding="utf-8"?>
<!-- Generator: Adobe Illustrator 19.1.0, SVG Export Plug-In . SVG Version: 6.00 Build 0)  -->
<svg version="1.1" id="Layer_1" xmlns="http://www.w3.org/2000/svg" xmlns:xlink="http://www.w3.org/1999/xlink" x="0px" y="0px"
	 viewBox="-1281 635 28 28" style="enable-background:new -1281 635 28 28;" xml:space="preserve">
<style type="text/css">
	.st0{fill:#FFFFFF;}
	.st1{fill:#E61F33;}
</style>
<circle class="st0" cx="-1267" cy="649" r="14"/>
<g>
	<g>
		<polygon class="st1" points="-1268.1,644.7 -1268.1,646.4 -1267.6,650.7 -1266.4,650.7 -1265.9,646.4 -1265.9,644.7 		"/>
		<ellipse class="st1" cx="-1267" cy="652.4" rx="1.1" ry="0.9"/>
	</g>
	<g>
		<path class="st1" d="M-1267,639c-5.5,0-10,4.5-10,10s4.5,10,10,10s10-4.5,10-10S-1261.5,639-1267,639z M-1267,657.6
			c-4.7,0-8.6-3.9-8.6-8.6s3.9-8.6,8.6-8.6s8.6,3.9,8.6,8.6S-1262.3,657.6-1267,657.6z"/>
	</g>
</g>
</svg>
