<?xml version="1.0" encoding="utf-8"?>
<!-- Generator: Adobe Illustrator 19.1.0, SVG Export Plug-In . SVG Version: 6.00 Build 0)  -->
<svg version="1.1" id="Isolation_Mode" xmlns="http://www.w3.org/2000/svg" xmlns:xlink="http://www.w3.org/1999/xlink" x="0px"
	 y="0px" viewBox="-1289 635 28 28" style="enable-background:new -1289 635 28 28;" xml:space="preserve">
<style type="text/css">
	.st0{fill:#FFFFFF;}
	.st1{fill:#00CE66;}
</style>
<g>
	<circle class="st0" cx="-1275" cy="649" r="14"/>
	<g>
		<g>
			<path class="st1" d="M-1275,640.3c0.5,0,1.1,0.1,1.6,0.2l-3.9,3.8c-1.9,1.9-1.9,5.1,0,7c0.9,0.9,2.2,1.4,3.5,1.4
				c1.3,0,2.6-0.5,3.5-1.4l3.9-3.9c0.1,0.5,0.1,1.1,0.1,1.6c0,4.8-3.9,8.7-8.7,8.7s-8.7-3.9-8.7-8.7S-1279.8,640.3-1275,640.3
				 M-1275,639c-5.5,0-10,4.5-10,10s4.5,10,10,10s10-4.5,10-10c0-1.4-0.3-2.8-0.8-4l-5.4,5.4c-0.7,0.7-1.7,1.1-2.6,1.1
				c-0.9,0-1.9-0.4-2.6-1.1c-1.4-1.4-1.4-3.8,0-5.2l5.4-5.4C-1272.2,639.3-1273.6,639-1275,639L-1275,639z"/>
		</g>
	</g>
</g>
</svg>
